<?xml version="1.0" encoding="UTF-8" standalone="no"?><!DOCTYPE svg PUBLIC "-//W3C//DTD SVG 1.1//EN" "http://www.w3.org/Graphics/SVG/1.1/DTD/svg11.dtd"><svg width="100%" height="100%" viewBox="0 0 512 512" version="1.1" xmlns="http://www.w3.org/2000/svg" xmlns:xlink="http://www.w3.org/1999/xlink" xml:space="preserve" xmlns:serif="http://www.serif.com/" style="fill-rule:evenodd;clip-rule:evenodd;stroke-linejoin:round;stroke-miterlimit:2;"><g id="Layer_18"><path d="M464,136l-8,0l0,-24c0,-4.389 -3.611,-8 -8,-8l-8,0l0,-24c0,-4.389 -3.611,-8 -8,-8l-48,0c-4.389,0 -8,3.611 -8,8l0,24l-8,0c-4.389,0 -8,3.611 -8,8l0,24l-60.72,0l-29.6,-29.68c-1.509,-1.497 -3.554,-2.332 -5.68,-2.32l-216,0c-21.943,0 -40,18.057 -40,40l0,256c0,21.943 18.057,40 40,40l416,0c21.943,0 40,-18.057 40,-40l0,-224c0,-21.943 -18.057,-40 -40,-40Zm-72,-48l32,0l0,16l-32,0l0,-16Zm-16,32l64,0l0,16l-64,0l0,-16Zm-328,0l212.72,0l29.6,29.68c1.509,1.497 3.554,2.332 5.68,2.32l168,0c13.166,0 24,10.834 24,24l0,40l-136,0c-22.527,-30.375 -58.183,-48.323 -96,-48.323c-37.817,0 -73.473,17.948 -96,48.323l-136,0l0,-72c0,-13.166 10.834,-24 24,-24Zm104,168c0,-57.053 46.947,-104 104,-104c57.053,0 104,46.947 104,104c0,57.053 -46.947,104 -104,104c-57.053,0 -104,-46.947 -104,-104Zm8,72l-136,0l0,-128l125.92,0c-21.811,40.919 -17.867,91 10.08,128Zm216,-72c0.026,-19.525 -4.755,-38.76 -13.92,-56l125.92,0l0,128l-136,0c15.623,-20.743 24.052,-46.032 24,-72Zm88,136l-416,0c-13.166,0 -24,-10.834 -24,-24l0,-24l150.72,0c45.53,42.443 117.03,42.443 162.56,0l150.72,0l0,24c0,13.166 -10.834,24 -24,24Z" style="fill:#ff5656;fill-rule:nonzero;"/><path d="M256,376c48.275,0 88,-39.725 88,-88c0,-48.275 -39.725,-88 -88,-88c-48.275,0 -88,39.725 -88,88c0,48.275 39.725,88 88,88Zm0,-160c39.498,0 72,32.502 72,72c0,39.498 -32.502,72 -72,72c-39.498,0 -72,-32.502 -72,-72c0,-39.498 32.502,-72 72,-72Z" style="fill:#ff5656;fill-rule:nonzero;"/><path d="M48,200l64,0c4.389,0 8,-3.611 8,-8l0,-48c0,-4.389 -3.611,-8 -8,-8l-64,0c-4.389,0 -8,3.611 -8,8l0,48c0,4.389 3.611,8 8,8Zm8,-48l48,0l0,32l-48,0l0,-32Z" style="fill:#ff5656;fill-rule:nonzero;"/><path d="M80,264c-13.166,0 -24,10.834 -24,24c0,13.166 10.834,24 24,24c13.166,0 24,-10.834 24,-24c0,-13.166 -10.834,-24 -24,-24Zm0,32c-4.389,0 -8,-3.611 -8,-8c0,-4.389 3.611,-8 8,-8c4.389,0 8,3.611 8,8c0,4.389 -3.611,8 -8,8Z" style="fill:#ff5656;fill-rule:nonzero;"/><path d="M432,264c-13.166,0 -24,10.834 -24,24c0,13.166 10.834,24 24,24c13.166,0 24,-10.834 24,-24c0,-13.166 -10.834,-24 -24,-24Zm0,32c-4.389,0 -8,-3.611 -8,-8c0,-4.389 3.611,-8 8,-8c4.389,0 8,3.611 8,8c0,4.389 -3.611,8 -8,8Z" style="fill:#ff5656;fill-rule:nonzero;"/></g></svg>