<?xml version="1.0" encoding="UTF-8" standalone="no"?><!DOCTYPE svg PUBLIC "-//W3C//DTD SVG 1.1//EN" "http://www.w3.org/Graphics/SVG/1.1/DTD/svg11.dtd"><svg width="100%" height="100%" viewBox="0 0 84 91" version="1.1" xmlns="http://www.w3.org/2000/svg" xmlns:xlink="http://www.w3.org/1999/xlink" xml:space="preserve" xmlns:serif="http://www.serif.com/" style="fill-rule:evenodd;clip-rule:evenodd;stroke-linejoin:round;stroke-miterlimit:2;"><g id="Ebene-1" serif:id="Ebene 1"><path d="M65.611,14.377c3.713,-0.397 6.479,2.413 6.479,6.075c0,5.631 -6.499,7.773 -9.922,4.523c-1.004,-0.952 -1.897,-2.414 -1.891,-4.59c0.01,-3.334 2.385,-5.693 5.334,-6.008" style="fill:#fff;"/><path d="M15.187,70.133c3.545,-0.207 6.356,2.535 6.211,6.344c-0.143,3.721 -4.19,7.387 -8.506,5.265c-1.871,-0.919 -3.545,-3.186 -3.24,-6.344c0.234,-2.411 1.797,-4.105 3.512,-4.861c0.541,-0.239 1.322,-0.364 2.023,-0.404" style="fill:#fff;"/><path d="M13.23,0l2.229,0c15.512,0.579 30.342,0.125 44.752,1.485c2.881,0.272 5.691,0.557 7.762,1.485c1.961,0.878 3.496,2.691 4.996,4.252c0.4,0.418 0.861,0.703 1.215,1.081c0.736,0.785 1.418,1.594 2.091,2.497c0.321,0.429 0.522,0.933 0.877,1.417c0.366,0.495 0.928,0.842 1.284,1.216c1.218,1.284 2.029,2.784 2.566,4.927c0.65,2.598 0.648,6.035 0.877,9.112c0.461,6.245 0.652,12.58 0.945,19.036c0.434,9.545 0.592,19.591 0.201,29.362c-0.103,2.609 -0.06,7.084 -1.214,8.775c-0.668,0.978 -2.237,1.998 -3.579,2.7c-1.39,0.728 -2.902,1.62 -4.386,1.89c-1.95,0.354 -3.602,-0.553 -5.401,-0.81c-1.466,-0.21 -3.088,-0.136 -4.724,-0.136c-9.662,0 -18.201,0.729 -27.608,1.486c-5.935,0.478 -11.793,0.77 -18.293,1.081c-3.216,0.152 -6.114,-0.054 -8.639,-0.946c-2.363,-0.834 -4.642,-2.248 -5.4,-4.252c-0.308,-0.818 -0.013,-2.182 -0.338,-2.768c-0.273,-0.492 -0.922,-0.579 -1.552,-0.877c-0.943,-0.445 -1.653,-1.022 -1.891,-2.228l0,-0.81c0.128,-1.014 0.645,-2.203 0.811,-3.375c0.19,-1.351 0.125,-2.814 0.202,-4.253c0.852,-15.818 1.682,-31.293 2.43,-47.114c0.127,-2.7 0.45,-5.65 0.406,-8.573c-0.044,-2.875 -0.431,-6.176 0.134,-8.775c0.903,-4.158 4.328,-6.902 9.247,-6.885Zm63.917,13.888c-0.019,-0.055 -0.048,-0.023 -0.032,0.027c0.005,0.017 0.017,0.038 0.037,0.057c0.023,0.171 0.047,0.343 0.073,0.515c0.146,0.993 0.326,2.001 0.526,3.007l0.011,0.056c0.246,1.249 0.283,2.437 0.336,3.781c0.531,13.307 0.289,27.47 0.607,40.837c0.055,2.333 0.295,5.037 0.37,7.658c0.082,2.909 -0.039,5.715 -0.843,7.799c-0.321,0.836 -1.301,1.608 -2.15,2.232c-0.193,0.141 -0.379,0.275 -0.549,0.401c-0.088,0.064 -0.176,0.129 -0.266,0.194c-0.597,0.431 -1.231,0.861 -1.835,1.239c-0.348,0.218 -0.687,0.418 -1.002,0.592c-0.215,0.117 -0.426,0.228 -0.638,0.33c-0.493,0.238 -0.984,0.431 -1.505,0.563c-0.585,0.147 -1.206,0.217 -1.908,0.187c-0.191,-0.009 -0.383,-0.02 -0.575,-0.035c-0.709,-0.053 -1.429,-0.142 -2.168,-0.243c-0.624,-0.084 -1.261,-0.177 -1.915,-0.262c-2.252,-0.292 -4.679,-0.419 -7.148,-0.439c-4.339,-0.035 -8.809,0.26 -12.696,0.573c-4.14,0.334 -8.204,0.739 -12.277,1.122c-8.511,0.799 -17.069,1.499 -26.469,1.242l0,0c9.4,0.257 17.958,-0.443 26.469,-1.242c4.074,-0.383 8.137,-0.788 12.277,-1.121c3.887,-0.313 8.357,-0.609 12.696,-0.574c2.469,0.02 4.896,0.147 7.148,0.439c0.654,0.085 1.291,0.178 1.915,0.262c0.739,0.101 1.459,0.191 2.168,0.243c0.192,0.015 0.384,0.027 0.575,0.035c0.702,0.03 1.323,-0.04 1.908,-0.187c0.521,-0.132 1.012,-0.324 1.505,-0.563c0.212,-0.102 0.423,-0.212 0.638,-0.33c0.315,-0.173 0.654,-0.374 1.002,-0.592c0.604,-0.378 1.238,-0.807 1.835,-1.239c0.09,-0.065 0.178,-0.129 0.266,-0.194c0.17,-0.125 0.356,-0.26 0.549,-0.401c0.849,-0.624 1.829,-1.396 2.151,-2.232c0.803,-2.085 0.924,-4.891 0.842,-7.799c-0.075,-2.621 -0.315,-5.326 -0.37,-7.659c-0.318,-13.366 -0.076,-27.529 -0.607,-40.837c-0.053,-1.343 -0.09,-2.532 -0.336,-3.78l-0.011,-0.056c-0.199,-1.006 -0.38,-2.014 -0.526,-3.007c-0.026,-0.172 -0.05,-0.344 -0.073,-0.515l0,0l0,0c-0.02,-0.019 -0.032,-0.04 -0.037,-0.057c-0.016,-0.05 0.013,-0.081 0.032,-0.027c0.002,0.005 0.003,0.01 0.005,0.017l0,0c1.076,0.981 1.894,2.302 2.412,3.857c0.271,0.815 0.46,1.694 0.559,2.623c0.293,2.735 0.535,5.815 0.676,8.775c0.566,11.994 1.215,23.963 1.215,36.585c0,2.968 0.002,6.082 -0.135,9.315c-0.121,2.835 -0.08,6.545 -0.945,8.506c-0.516,1.169 -1.959,1.968 -3.375,2.699c-0.824,0.425 -1.671,0.945 -2.531,1.324c-0.569,0.251 -1.144,0.44 -1.721,0.498c-0.875,0.089 -1.744,-0.1 -2.599,-0.323c-0.698,-0.183 -1.385,-0.389 -2.059,-0.486c-4.288,-0.618 -9.118,-0.222 -13.77,0c-1.354,0.064 -2.707,0.138 -4.059,0.219c-9.224,0.552 -18.407,1.433 -27.852,1.963c-1.172,0.066 -2.347,0.126 -3.527,0.18c-1.307,0.059 -2.616,0.104 -3.889,0.079c-1.35,-0.026 -2.659,-0.13 -3.88,-0.377c-0.343,-0.069 -0.678,-0.149 -1.006,-0.242c-2.347,-0.665 -4.585,-1.675 -5.535,-3.779l0,0c0.95,2.104 3.187,3.114 5.535,3.779c0.328,0.093 0.663,0.173 1.006,0.242c1.221,0.247 2.53,0.351 3.88,0.377c1.272,0.025 2.581,-0.02 3.888,-0.079c1.18,-0.054 2.356,-0.114 3.528,-0.18c9.444,-0.529 18.628,-1.411 27.852,-1.963c1.352,-0.081 2.705,-0.154 4.059,-0.219c4.652,-0.222 9.482,-0.618 13.769,0c0.674,0.098 1.362,0.303 2.06,0.486c0.855,0.224 1.724,0.412 2.599,0.324c0.577,-0.059 1.152,-0.248 1.721,-0.499c0.86,-0.378 1.707,-0.899 2.531,-1.324c1.416,-0.731 2.859,-1.53 3.375,-2.699c0.865,-1.961 0.824,-5.671 0.945,-8.506c0.137,-3.233 0.135,-6.348 0.135,-9.315c0,-12.623 -0.649,-24.592 -1.215,-36.585c-0.141,-2.96 -0.383,-6.04 -0.676,-8.775c-0.099,-0.929 -0.288,-1.808 -0.559,-2.623c-0.518,-1.556 -1.336,-2.876 -2.412,-3.857l-0.005,-0.017Zm-15.249,67.315c2.522,0.139 5.282,1.039 7.696,0.675c1.47,-0.222 2.734,-1.163 4.049,-2.026c1.216,-0.797 2.687,-1.786 3.24,-2.834c0.91,-1.726 0.803,-5.164 0.676,-8.033c-0.118,-2.653 -0.254,-5.52 -0.338,-7.965c-0.471,-13.625 0.021,-27.783 -0.539,-41.108c-0.11,-2.571 -1.235,-4.891 -0.946,-7.29c-0.386,-0.665 -0.816,-1.184 -1.484,-1.957c-0.522,-0.602 -1.078,-1.501 -1.621,-1.62c-1.262,-0.277 -2.889,-0.179 -4.387,-0.27c-4.246,-0.257 -8.736,-0.496 -12.826,-0.742c-11.772,-0.709 -22.998,-1.148 -35.168,-1.148c-2.953,0 -6.176,-0.745 -8.031,0.608c-3.519,2.563 -3.097,9.216 -3.308,14.849c-0.542,14.469 -1.087,28.963 -2.227,43.133c-0.375,4.664 -0.77,9.915 -1.622,14.242c-0.13,0.674 -0.455,1.476 -0.404,1.891c0.043,0.345 0.434,0.703 0.608,1.079c0.197,0.43 0.181,0.875 0.54,1.148c19.582,0.838 36.335,-3.726 56.092,-2.632Zm-43.517,-79.77c-1.707,-0.083 -3.391,-0.228 -5.016,-0.151c-2.896,0.137 -5.198,0.975 -6.647,2.703c-0.741,0.883 -1.26,1.999 -1.521,3.373c-0.264,1.397 -0.262,2.932 -0.203,4.504c0.06,1.603 0.18,3.243 0.136,4.811c-0.017,0.639 -0.042,1.279 -0.071,1.918c-0.115,2.488 -0.299,4.953 -0.401,7.194c-0.128,2.823 -0.269,5.658 -0.417,8.5c-0.645,12.341 -1.432,24.811 -1.946,36.994c-0.012,0.292 -0.018,0.6 -0.021,0.919c-0.011,0.862 -0.006,1.803 -0.076,2.721c-0.024,0.322 -0.058,0.64 -0.105,0.951c-0.041,0.278 -0.101,0.555 -0.17,0.827c-0.218,0.866 -0.523,1.691 -0.601,2.368c-0.031,0.265 -0.027,0.506 0.029,0.719c0.103,0.389 0.303,0.623 0.582,0.801c0.361,0.231 0.855,0.366 1.442,0.618l0,-0.001c-0.587,-0.251 -1.081,-0.386 -1.442,-0.617c-0.279,-0.177 -0.478,-0.412 -0.581,-0.8c-0.057,-0.213 -0.061,-0.455 -0.03,-0.72c0.079,-0.677 0.384,-1.502 0.601,-2.368c0.069,-0.272 0.129,-0.549 0.171,-0.827c0.046,-0.311 0.08,-0.63 0.104,-0.951c0.07,-0.918 0.066,-1.859 0.076,-2.721c0.004,-0.318 0.01,-0.626 0.022,-0.918c0.514,-12.184 1.3,-24.654 1.945,-36.995c0.148,-2.842 0.289,-5.677 0.417,-8.501c0.102,-2.241 0.286,-4.705 0.401,-7.193c0.029,-0.639 0.054,-1.279 0.072,-1.918c0.043,-1.568 -0.076,-3.209 -0.137,-4.811c-0.059,-1.572 -0.061,-3.107 0.203,-4.504c0.261,-1.374 0.78,-2.49 1.521,-3.373c1.449,-1.728 3.75,-2.565 6.647,-2.702c1.624,-0.077 3.309,0.068 5.016,0.15c0.621,0.03 1.245,0.052 1.869,0.052c3.276,0 6.58,0.018 9.893,0.059c8.241,0.103 16.529,0.349 24.533,0.819c2.014,0.118 4.022,0.212 5.938,0.388c2.378,0.218 4.614,0.561 6.548,1.232c0.042,0.015 0.084,0.03 0.126,0.047c0.856,0.343 1.872,1.206 2.734,2.04c0.455,0.441 0.868,0.875 1.19,1.22c0.072,0.076 0.3,0.155 0.311,0.29c0.002,0.034 -0.009,0.072 -0.041,0.115c-9.175,-0.72 -18.556,-1.003 -28.753,-1.485c-7.075,-0.334 -14.538,-0.608 -22.073,-0.608c-0.703,0 -1.409,-0.042 -2.107,-0.092c-1.766,-0.126 -3.481,-0.303 -4.981,0.024c-1.811,0.396 -3.115,1.525 -3.97,2.964c-0.182,0.305 -0.343,0.623 -0.485,0.952c-1,2.321 -1.135,5.259 -1.283,8.438c-0.713,15.359 -1.227,31.048 -2.294,46.102c-0.427,6.02 -0.95,11.897 -2.161,17.212l0,0c1.211,-5.314 1.734,-11.192 2.161,-17.212c1.066,-15.054 1.581,-30.743 2.294,-46.103c0.148,-3.178 0.283,-6.116 1.283,-8.437c0.142,-0.329 0.303,-0.647 0.485,-0.952c0.856,-1.438 2.158,-2.567 3.97,-2.963c1.499,-0.327 3.215,-0.151 4.981,-0.025c0.698,0.05 1.404,0.092 2.107,0.092c7.535,0 14.998,0.274 22.072,0.608c10.197,0.482 19.578,0.765 28.754,1.485c0.032,-0.042 0.044,-0.08 0.041,-0.115c-0.01,-0.135 -0.238,-0.213 -0.31,-0.29c-0.323,-0.345 -0.735,-0.779 -1.191,-1.22c-0.862,-0.835 -1.878,-1.697 -2.734,-2.04c-0.043,-0.017 -0.084,-0.033 -0.126,-0.047c-1.934,-0.671 -4.171,-1.014 -6.548,-1.232c-1.916,-0.176 -3.924,-0.27 -5.939,-0.389c-8.003,-0.47 -16.291,-0.715 -24.532,-0.818c-3.313,-0.041 -6.617,-0.059 -9.893,-0.059c-0.625,0 -1.248,-0.022 -1.869,-0.052Z" style="fill:#fff;"/><path d="M47.183,48.127c0.799,0.665 2.291,1.068 2.633,2.296c0.483,1.74 -0.451,3.521 -1.08,4.59c-1.162,1.974 -2.807,3.933 -5.873,3.914c-3.404,-0.02 -7.191,-2.382 -8.37,-5.332c-0.282,-0.705 -0.206,-1.453 -0.405,-2.092c-0.11,-0.351 -1.868,-2.406 -2.295,-3.241c-1.922,-3.754 -0.184,-8.264 1.687,-10.867c2.088,-2.907 5.404,-4.657 9.586,-4.657c6.504,0 11.25,3.452 13.635,7.83c0.457,0.839 0.787,1.657 1.012,2.565c0.211,0.848 0.254,1.786 0.541,2.834c0.273,1.005 1.021,1.178 1.349,2.363c0.608,2.206 -0.193,5.057 -0.742,7.087c-0.584,2.154 -1.496,4.158 -2.566,5.67c-3.305,4.671 -8.998,8.276 -17.145,6.818c-2.42,-0.433 -4.508,-1.155 -6.209,-1.958c-3.398,-1.602 -6.5,-4.693 -8.168,-8.235c-0.34,-0.718 -0.402,-1.496 -0.675,-2.227c-0.202,-0.542 -1.147,-2.528 -1.35,-3.105c-0.405,-1.147 -0.967,-2.078 -1.283,-3.443c-0.956,-4.122 -0.082,-8.514 1.215,-11.947c1.609,-4.254 4.273,-8.531 7.628,-11.07c3.53,-2.672 8.524,-4.623 14.58,-3.983c5.551,0.587 9.735,2.625 13.366,5.265c3.302,2.403 6.113,6.844 8.166,10.531c0.582,1.043 1.324,1.873 1.756,2.902c1.322,3.152 2.232,7.204 2.025,11.947c-0.229,5.198 -2.815,10.219 -5.063,13.635c-3.695,5.61 -8.728,10.025 -15.998,12.016c-8.615,2.357 -16.721,-0.971 -22.275,-4.185c-1.975,-1.143 -3.892,-2.386 -5.535,-3.848c-1.667,-1.484 -2.924,-3.16 -4.252,-5.062c-1.319,-1.889 -2.601,-3.511 -3.779,-5.536c-1.195,-2.051 -1.797,-4.474 -2.229,-7.087c-0.478,-2.901 -0.857,-5.751 -0.877,-8.505c-0.021,-2.843 0.586,-5.649 1.215,-8.101c1.254,-4.89 3.676,-8.485 6.479,-12.149c2.62,-3.422 5.915,-6.63 9.923,-8.775c1.975,-1.057 4.354,-1.85 6.75,-2.565c2.526,-0.754 5.408,-1.358 8.1,-1.485c1.744,-0.082 3.789,0.15 4.861,1.08c0.586,0.509 0.969,1.546 1.418,2.497c0.428,0.909 0.955,2.144 0.606,2.971c-0.424,1.004 -2.321,0.877 -3.846,0.877c-1.754,0 -3.293,0.02 -4.524,0.202c-8.111,1.205 -13.712,5.488 -17.751,10.597c-4.67,5.909 -8.118,14.042 -8.844,24.234c-0.103,1.453 -0.309,3.345 -0.068,4.657c0.117,0.625 0.927,1.147 1.418,1.688c5.432,5.963 11.595,10.818 21.128,12.555c3.489,0.635 7.746,0.542 10.936,-0.338c11.236,-3.1 16.83,-14.265 18.359,-27.54c0.11,-0.944 0.34,-1.993 0.27,-2.767c-0.104,-1.123 -1.114,-2.35 -1.754,-3.173c-2.102,-2.701 -4.955,-5.14 -7.764,-7.02c-3.828,-2.564 -9.597,-4.634 -15.66,-3.51c-7.867,1.459 -13.42,6.915 -15.795,13.77c-0.867,2.505 -1.08,5.236 -1.215,8.573c-0.026,0.656 -0.103,0.943 -0.269,1.619c0.249,0.397 0.234,0.901 0.404,1.351c0.463,1.22 2.729,2.723 3.713,3.442c1.482,1.083 2.899,1.908 4.387,2.7c3.088,1.642 6.97,3.234 11.341,2.7c3.936,-0.481 6.592,-3.027 8.573,-5.603c1.084,-1.41 1.916,-2.861 2.564,-4.522c0.651,-1.665 0.887,-3.548 1.957,-5.13c-0.326,-0.829 -0.283,-1.98 -0.674,-2.768c-0.836,-1.68 -3.531,-3.109 -5.334,-3.915c-2.318,-1.036 -4.859,-1.712 -7.761,-1.35c-5.381,0.672 -7.703,4.883 -8.641,9.856c0.125,0.797 0.639,1.207 0.945,1.822c2.041,0.917 6.545,2.602 8.506,0.472c0.317,-0.343 0.842,-1.112 0.809,-1.552c-0.03,-0.426 -0.651,-0.714 -0.944,-1.012c-0.398,-0.403 -0.697,-0.835 -0.878,-1.216c-0.698,-1.465 -1.256,-5.256 0.675,-5.467c1.852,-0.202 3.326,2.698 3.578,4.252c0.118,0.734 0.122,1.633 -0.203,2.16Zm20.454,-5.669c0.497,1.439 0.906,3.002 1.173,4.621c0.382,2.326 0.47,4.768 0.108,7.123c-0.131,0.851 -0.316,1.689 -0.541,2.507c-0.753,2.728 -1.957,5.236 -3.104,7.281c-1.32,2.355 -2.923,4.493 -4.792,6.356c-2.16,2.152 -4.677,3.938 -7.529,5.272l0,0l-0.002,0.001c-0.666,0.311 -1.351,0.597 -2.054,0.858c-2.086,0.775 -4.499,1.278 -6.954,1.406c-1.605,0.084 -3.229,0.008 -4.791,-0.259c-1.237,-0.209 -2.463,-0.513 -3.652,-0.88c-2.261,-0.699 -4.39,-1.63 -6.205,-2.594c-0.022,-0.011 -0.044,-0.023 -0.065,-0.035c-0.37,-0.197 -0.736,-0.397 -1.098,-0.6l-0.001,0l-0.015,-0.009c-2.529,-1.42 -4.854,-2.996 -6.785,-4.926c-1.127,-1.127 -2.115,-2.327 -3.057,-3.584c-0.045,-0.061 -0.091,-0.122 -0.136,-0.183l-0.014,-0.018l-0.004,-0.006c-0.897,-1.208 -1.755,-2.468 -2.658,-3.766l-0.002,-0.003c0.903,1.299 1.763,2.56 2.66,3.769l0.004,0.006l0.014,0.018c0.045,0.061 0.091,0.122 0.136,0.183c0.942,1.257 1.93,2.457 3.057,3.584c1.93,1.93 4.256,3.506 6.785,4.926l0.016,0.009c0.362,0.203 0.728,0.403 1.097,0.6c0.022,0.012 0.044,0.024 0.066,0.035c1.815,0.964 3.943,1.895 6.205,2.594c1.189,0.368 2.415,0.671 3.651,0.881c1.563,0.266 3.186,0.342 4.792,0.258c2.455,-0.128 4.868,-0.631 6.955,-1.406c0.702,-0.26 1.387,-0.547 2.053,-0.858l0.002,-0.001l0,0l0,0l0,0c2.853,-1.333 5.369,-3.12 7.529,-5.272c1.87,-1.863 3.472,-4 4.793,-6.356c1.146,-2.044 2.35,-4.553 3.103,-7.281c0.225,-0.818 0.411,-1.656 0.541,-2.507c0.363,-2.355 0.274,-4.797 -0.108,-7.123c-0.267,-1.62 -0.675,-3.183 -1.173,-4.622l0,0.001Zm0,0l-0.001,-0.001c-0.273,3.263 -0.737,6.324 -1.428,9.17c-0.872,3.591 -2.105,6.842 -3.768,9.73c-1.523,2.641 -3.348,5.027 -5.575,6.996c-2,1.768 -4.323,3.2 -7.042,4.18l-0.003,0l-0.015,0.006c-0.086,0.031 -0.173,0.061 -0.26,0.091c-0.016,0.006 -0.032,0.011 -0.048,0.017c-3.153,1.079 -7.084,1.48 -10.616,1.063c-1.211,-0.143 -2.373,-0.34 -3.49,-0.587c-5.888,-1.302 -10.527,-3.965 -14.489,-7.135c-1.956,-1.567 -3.748,-3.257 -5.443,-4.968l0.002,0.003c1.695,1.71 3.485,3.399 5.441,4.965c3.962,3.171 8.601,5.834 14.489,7.135c1.117,0.247 2.279,0.444 3.49,0.587c3.533,0.417 7.464,0.017 10.616,-1.063c0.016,-0.006 0.032,-0.011 0.048,-0.017c0.087,-0.03 0.174,-0.06 0.26,-0.091l0.015,-0.006l0,0l0,0l0.003,0c2.719,-0.98 5.043,-2.412 7.042,-4.18c2.227,-1.969 4.052,-4.355 5.574,-6.995c1.664,-2.889 2.897,-6.14 3.769,-9.731c0.691,-2.846 1.156,-5.906 1.429,-9.169Zm-14.223,20.265c0.497,-0.498 0.962,-1.024 1.397,-1.568c1.981,-2.482 3.093,-5.784 3.645,-9.787c0.168,-1.209 0.408,-2.633 -0.473,-3.645c-0.236,-0.223 -0.209,0.067 -0.27,0.135c-0.263,0.293 -0.43,0.704 -0.561,1.158c-0.143,0.496 -0.245,1.043 -0.385,1.541c-0.371,1.331 -0.866,2.537 -1.448,3.644c-0.696,1.32 -1.516,2.499 -2.399,3.579c-2.093,2.56 -4.97,5.126 -9.382,5.4c-4.065,0.253 -7.518,-1.014 -10.461,-2.43c-2.571,-1.237 -4.934,-2.704 -6.953,-4.387c-0.155,-0.129 -0.304,-0.36 -0.5,-0.476c-0.092,-0.054 -0.194,-0.083 -0.312,-0.065l0.001,0.001l0,0c0.214,0.518 0.444,1.024 0.691,1.518l0.004,0.008c1.332,2.665 3.145,4.938 5.65,6.506c2.914,1.825 6.789,3.25 11.205,3.24c4.627,-0.01 8.017,-1.835 10.551,-4.372Zm3.738,-13.707c0.132,-0.454 0.298,-0.865 0.561,-1.158c0.06,-0.068 0.033,-0.358 0.269,-0.135c0.881,1.012 0.641,2.435 0.473,3.644c-0.551,4.004 -1.664,7.306 -3.645,9.788c-0.434,0.545 -0.899,1.07 -1.396,1.568c-2.534,2.537 -5.924,4.362 -10.55,4.372c-4.416,0.01 -8.291,-1.415 -11.205,-3.24c-2.505,-1.568 -4.319,-3.842 -5.651,-6.506l-0.003,-0.006l-0.001,-0.002c-0.247,-0.494 -0.477,-1 -0.691,-1.518c0.118,-0.018 0.219,0.01 0.311,0.064c0.196,0.116 0.345,0.347 0.499,0.476c2.019,1.683 4.383,3.15 6.953,4.387c2.943,1.416 6.396,2.683 10.461,2.43c4.412,-0.274 7.289,-2.84 9.383,-5.4c0.883,-1.08 1.703,-2.259 2.399,-3.579c0.582,-1.107 1.077,-2.313 1.449,-3.644c0.139,-0.499 0.241,-1.045 0.384,-1.541Zm-8.594,1.628c-0.373,-0.748 -1.25,-1.016 -2.117,-1.437c-0.08,0.033 -0.154,0.072 -0.203,0.135c-0.08,0.328 -0.176,0.637 -0.289,0.927c-0.67,1.72 -1.942,2.772 -4.166,2.921c-0.984,0.066 -2.024,-0.063 -3.031,-0.299c-1.286,-0.303 -2.52,-0.781 -3.518,-1.253c0.092,0.741 0.279,1.355 0.544,1.885c0.488,0.979 1.242,1.676 2.157,2.367c0.968,0.731 2.483,1.538 4.048,1.807c1.192,0.205 2.414,0.098 3.446,-0.592c0.785,-0.525 1.648,-1.494 2.296,-2.571c0.451,-0.748 0.798,-1.549 0.943,-2.289c0.14,-0.714 0.081,-1.22 -0.11,-1.601Zm-2.609,-0.375c0.113,-0.29 0.209,-0.599 0.289,-0.927c0.049,-0.063 0.123,-0.102 0.203,-0.135c0.867,0.421 1.744,0.69 2.117,1.437c0.191,0.381 0.25,0.887 0.11,1.601c-0.145,0.74 -0.492,1.54 -0.943,2.289c-0.648,1.077 -1.511,2.045 -2.296,2.57c-1.032,0.691 -2.254,0.798 -3.446,0.593c-1.566,-0.269 -3.08,-1.076 -4.048,-1.807c-0.915,-0.692 -1.669,-1.388 -2.157,-2.367c-0.265,-0.53 -0.451,-1.144 -0.544,-1.885c0.998,0.472 2.232,0.95 3.518,1.253c1.007,0.236 2.047,0.366 3.031,0.3c2.225,-0.15 3.496,-1.201 4.166,-2.922Zm0.986,-36.951c-0.127,-0.158 -0.268,-0.3 -0.427,-0.425c-0.785,-0.617 -2.283,-0.817 -3.848,-0.743c-0.906,0.043 -1.822,0.145 -2.731,0.289c-0.826,0.13 -1.646,0.296 -2.448,0.483l-0.003,0.001l-0.004,0.001l-0.016,0.003l-0.042,0.01l-0.003,0.001l-0.01,0.002l-0.033,0.008l-0.008,0.002l-0.014,0.003l-0.017,0.004l-0.006,0.002l-0.01,0.002c-0.534,0.127 -1.06,0.264 -1.573,0.406l-0.018,0.005l-0.023,0.006l-0.006,0.002l-0.003,0c-0.455,0.127 -0.9,0.257 -1.334,0.39c-0.651,0.199 -1.292,0.408 -1.919,0.628c-1.772,0.625 -3.434,1.345 -4.898,2.207c-0.523,0.308 -1.034,0.634 -1.533,0.977c-4.094,2.809 -7.378,6.726 -10.009,11.01l-0.018,0.03l-0.019,0.031c-0.684,1.116 -1.323,2.257 -1.921,3.41c-0.121,0.233 -0.236,0.473 -0.346,0.719c-0.711,1.597 -1.187,3.442 -1.56,5.372c-0.09,0.463 -0.174,0.93 -0.254,1.401c-0.162,0.952 -0.27,1.917 -0.331,2.891c-0.246,3.914 0.275,7.964 1.173,11.836c0.178,0.769 0.371,1.531 0.576,2.284l0,-0.001c-0.205,-0.753 -0.398,-1.514 -0.576,-2.283c-0.897,-3.872 -1.419,-7.922 -1.173,-11.836c0.061,-0.973 0.169,-1.939 0.331,-2.891c0.08,-0.47 0.164,-0.938 0.254,-1.401c0.374,-1.93 0.849,-3.776 1.56,-5.372c0.11,-0.246 0.225,-0.486 0.346,-0.72c0.598,-1.152 1.237,-2.293 1.921,-3.409l0.037,-0.061c2.631,-4.283 5.915,-8.201 10.009,-11.01c0.499,-0.342 1.01,-0.668 1.533,-0.976c1.465,-0.863 3.126,-1.583 4.898,-2.208c0.627,-0.22 1.268,-0.429 1.918,-0.628c0.434,-0.132 0.88,-0.263 1.335,-0.39l0.009,-0.002l0.041,-0.011c0.513,-0.142 1.039,-0.279 1.573,-0.406l0.016,-0.004l0.031,-0.007l0.041,-0.01l0.011,-0.002l0.002,-0.001l0.058,-0.013l0.007,-0.002c1.687,-0.394 3.452,-0.69 5.179,-0.772c1.564,-0.074 3.062,0.126 3.848,0.743c0.159,0.125 0.3,0.268 0.427,0.425c0.727,0.904 0.986,2.3 1.53,3.625c-3.23,0.339 -6.109,0.103 -8.773,0.607c-7.145,1.352 -12.424,5.128 -16.387,9.792c-0.282,0.332 -0.558,0.668 -0.827,1.008c-4.443,5.62 -7.641,12.777 -8.753,21.749c-0.255,2.059 -0.401,4.213 -0.426,6.466l0,0.001c0.025,-2.253 0.171,-4.408 0.426,-6.467c1.112,-8.972 4.311,-16.13 8.754,-21.749c0.269,-0.34 0.544,-0.676 0.826,-1.008c3.964,-4.664 9.242,-8.441 16.386,-9.792c2.664,-0.504 5.543,-0.269 8.774,-0.607c-0.544,-1.325 -0.803,-2.721 -1.53,-3.625Zm17.46,22.996c-4.572,-4.077 -9.771,-9.343 -18.426,-9.584c-8.924,-0.248 -15.006,4.052 -18.631,9.517c-2.562,3.866 -4.084,8.656 -3.914,14.849l0,0.001c-0.17,-6.194 1.351,-10.984 3.914,-14.85c3.625,-5.465 9.707,-9.765 18.63,-9.517c8.657,0.241 13.856,5.508 18.428,9.585l-0.001,-0.001Zm-4.935,-6.508c-1.611,-1.639 -3.528,-2.957 -5.729,-4.089c-4.53,-2.329 -11.541,-3.821 -17.483,-1.755c-2.459,0.855 -4.53,2.15 -6.296,3.786c-1.919,1.777 -3.476,3.956 -4.775,6.406c-1.226,2.317 -2.491,5.638 -2.889,9.061c-0.315,2.711 -0.086,5.487 1.136,7.882l0,-0.001c-1.222,-2.394 -1.451,-5.17 -1.136,-7.881c0.398,-3.423 1.663,-6.743 2.89,-9.06c1.298,-2.451 2.855,-4.63 4.774,-6.407c1.766,-1.635 3.838,-2.931 6.296,-3.786c5.941,-2.066 12.953,-0.574 17.482,1.755c2.202,1.132 4.119,2.45 5.73,4.089c0.14,0.142 0.278,0.287 0.413,0.434c0.546,0.595 1.062,1.21 1.559,1.844c1.046,1.337 2.003,2.756 2.963,4.23l0.002,0.001c-0.961,-1.474 -1.918,-2.893 -2.965,-4.231c-0.496,-0.634 -1.012,-1.249 -1.559,-1.844c-0.135,-0.147 -0.273,-0.292 -0.413,-0.434Zm-12.853,4.436c-0.759,-0.179 -1.557,-0.301 -2.394,-0.357c-2.292,-0.153 -4.354,0.242 -6.076,1.065c-1.059,0.506 -1.989,1.173 -2.766,1.973c-0.867,0.892 -1.751,2.241 -2.374,3.764c-0.905,2.217 -1.256,4.806 -0.192,6.9c0.123,0.244 0.232,0.548 0.418,0.77c0.088,0.105 0.193,0.191 0.324,0.244l0,-0.001c-0.131,-0.052 -0.236,-0.138 -0.324,-0.243c-0.186,-0.222 -0.295,-0.527 -0.417,-0.769c-1.065,-2.095 -0.714,-4.683 0.191,-6.901c0.623,-1.523 1.507,-2.871 2.374,-3.764c0.777,-0.8 1.707,-1.467 2.766,-1.973c1.722,-0.822 3.784,-1.218 6.076,-1.064c0.837,0.056 1.635,0.177 2.394,0.356c4.46,1.053 7.577,4.101 9.418,7.608c-0.001,0.006 -0.002,0.012 -0.002,0.016l0.001,0.001l0,0.001l0,0l0.011,0.008l0.057,0.041l0.002,0.001c-0.023,-0.017 -0.047,-0.034 -0.07,-0.051c0,-0.005 0.001,-0.01 0.002,-0.016c-1.842,-3.508 -4.958,-6.557 -9.419,-7.609Zm9.416,7.624c-2.461,-1.778 -5.819,-3.902 -9.919,-4.201c-1.745,-0.127 -3.276,0.021 -4.614,0.402c-3.932,1.12 -6.204,4.247 -7.402,8.293c-0.213,0.72 -0.392,1.469 -0.541,2.24l0,0c0.149,-0.771 0.328,-1.52 0.541,-2.24c1.199,-4.045 3.471,-7.173 7.402,-8.293c1.338,-0.38 2.868,-0.529 4.613,-0.402c4.102,0.298 7.46,2.424 9.92,4.202c-0.001,0.042 0.034,0.048 0.07,0.051l-0.001,-0.001c-0.036,-0.003 -0.069,-0.009 -0.068,-0.049l-0.001,-0.001l0,0l0,-0.001Zm-12.012,1.267c1.289,0.75 2.338,2.408 1.957,4.387c-0.523,0.372 -1.014,0.058 -1.39,-0.559c-0.477,-0.783 -0.772,-2.054 -0.717,-3.035c0.016,-0.298 0.065,-0.57 0.15,-0.793l0,0c-0.085,0.223 -0.134,0.494 -0.15,0.793c-0.055,0.981 0.239,2.252 0.717,3.035c0.376,0.617 0.867,0.931 1.39,0.559l0,0l0.001,0c0.381,-1.979 -0.668,-3.637 -1.957,-4.387l-0.001,0Z" style="fill:#fff;"/></g></svg>